<?xml version="1.0" standalone="no"?>
<svg viewBox="0 0 200 200" xmlns="http://www.w3.org/2000/svg">
  <path fill="#FA4D56" d="M42.1,-67.9C55.6,-65.2,68.4,-56,74.8,-43.6C81.1,-31.2,81.2,-15.6,81.7,0.3C82.3,16.2,83.3,32.5,78,46.7C72.7,61,61,73.2,47,74C32.9,74.8,16.5,64,2.6,59.5C-11.2,54.9,-22.3,56.5,-36.1,55.5C-49.8,54.5,-66,51,-73.8,41.3C-81.6,31.7,-80.9,15.8,-75.2,3.3C-69.5,-9.3,-58.9,-18.6,-52.5,-30.5C-46,-42.5,-43.7,-57.1,-35.7,-63C-27.6,-68.8,-13.8,-66,0.3,-66.4C14.3,-66.8,28.6,-70.6,42.1,-67.9Z" transform="translate(100 100)" />
</svg>
