<?xml version="1.0" standalone="no"?>
<svg viewBox="0 0 200 200" xmlns="http://www.w3.org/2000/svg">
  <path fill="#F1C21B" d="M40,-69.1C54,-61.3,68.9,-54.8,78.3,-43.5C87.6,-32.3,91.5,-16.1,90.8,-0.4C90.2,15.4,85.1,30.8,76.7,43.7C68.3,56.7,56.5,67.1,43.2,76C29.9,84.9,14.9,92.1,1,90.5C-13,88.8,-26,78.2,-39.7,69.5C-53.3,60.8,-67.6,54,-75,42.8C-82.5,31.5,-83.1,15.8,-82.7,0.2C-82.3,-15.3,-80.9,-30.6,-73.4,-41.8C-65.9,-52.9,-52.3,-59.9,-39,-68.2C-25.8,-76.4,-12.9,-85.8,0.1,-85.9C13,-86.1,26.1,-76.9,40,-69.1Z" transform="translate(100 100)" />
</svg>
